<svg xmlns="http://www.w3.org/2000/svg" viewBox="0 0 1110.06 239.13"><defs><style>.cls-1,.cls-11,.cls-12,.cls-8{font-size:133.46px;font-family:Whomp;}.cls-1{fill:#164660;stroke:#164660;}.cls-1,.cls-8{stroke-width:20px;}.cls-2{letter-spacing:-0.04em;}.cls-3{letter-spacing:-0.01em;}.cls-4{letter-spacing:0.02em;}.cls-5{letter-spacing:0em;}.cls-6{letter-spacing:-0.02em;}.cls-7{letter-spacing:-0.03em;}.cls-8{stroke:#f9bd62;stroke-miterlimit:10;}.cls-9{letter-spacing:-0.02em;}.cls-10{letter-spacing:-0.03em;}.cls-11{fill:none;stroke:#fff;stroke-width:10px;}.cls-12{fill:#68dfd8;}</style></defs><g id="Layer_2" data-name="Layer 2"><g id="Layer_1-2" data-name="Layer 1"><text class="cls-1" transform="translate(16.01 148.79)"><tspan class="cls-2">R</tspan><tspan x="122.11" y="0">ec</tspan><tspan class="cls-3" x="252.9" y="0">i</tspan><tspan class="cls-4" x="309.08" y="0">p</tspan><tspan x="395.96" y="0">e </tspan><tspan class="cls-2" x="490.04" y="0">R</tspan><tspan class="cls-5" x="612.16" y="0">em</tspan><tspan class="cls-6" x="821.01" y="0">i</tspan><tspan class="cls-7" x="876.13" y="0">x</tspan><tspan x="952.07" y="0">!</tspan></text><text class="cls-8" transform="translate(28.02 134.11)"><tspan class="cls-2">R</tspan><tspan x="122.11" y="0">ec</tspan><tspan class="cls-3" x="252.9" y="0">i</tspan><tspan class="cls-4" x="309.08" y="0">p</tspan><tspan x="395.96" y="0">e </tspan><tspan class="cls-2" x="490.04" y="0">R</tspan><tspan class="cls-5" x="612.16" y="0">em</tspan><tspan class="cls-9" x="821.01" y="0">i</tspan><tspan class="cls-10" x="876.13" y="0">x</tspan><tspan x="952.07" y="0">!</tspan></text><text class="cls-11" transform="translate(28.02 134.11)"><tspan class="cls-2">R</tspan><tspan x="122.11" y="0">ec</tspan><tspan class="cls-3" x="252.9" y="0">i</tspan><tspan class="cls-4" x="309.08" y="0">p</tspan><tspan x="395.96" y="0">e </tspan><tspan class="cls-2" x="490.04" y="0">R</tspan><tspan class="cls-5" x="612.16" y="0">em</tspan><tspan class="cls-9" x="821.01" y="0">i</tspan><tspan class="cls-10" x="876.13" y="0">x</tspan><tspan x="952.07" y="0">!</tspan></text><text class="cls-11" transform="translate(28.02 134.11)"><tspan class="cls-2">R</tspan><tspan x="122.11" y="0">ec</tspan><tspan class="cls-3" x="252.9" y="0">i</tspan><tspan class="cls-4" x="309.08" y="0">p</tspan><tspan x="395.96" y="0">e </tspan><tspan class="cls-2" x="490.04" y="0">R</tspan><tspan class="cls-5" x="612.16" y="0">em</tspan><tspan class="cls-9" x="821.01" y="0">i</tspan><tspan class="cls-10" x="876.13" y="0">x</tspan><tspan x="952.07" y="0">!</tspan></text><text class="cls-12" transform="translate(30.69 134.11)"><tspan class="cls-2">R</tspan><tspan x="122.11" y="0">ec</tspan><tspan class="cls-3" x="252.9" y="0">i</tspan><tspan class="cls-4" x="309.08" y="0">p</tspan><tspan x="395.96" y="0">e </tspan><tspan class="cls-2" x="490.04" y="0">R</tspan><tspan class="cls-5" x="612.16" y="0">em</tspan><tspan class="cls-9" x="821.01" y="0">i</tspan><tspan class="cls-10" x="876.13" y="0">x</tspan><tspan x="952.07" y="0">!</tspan></text></g></g></svg>