<svg xmlns="http://www.w3.org/2000/svg" viewBox="0 0 1110.06 203.5"><defs><style>.cls-1{fill:#164660;stroke:#164660;}.cls-1,.cls-2{stroke-width:20px;}.cls-2{stroke:#f9bd62;stroke-miterlimit:10;}.cls-3{fill:none;stroke:#fff;stroke-width:10px;}.cls-4{fill:#68dfd8;}</style></defs><g id="Layer_2" data-name="Layer 2"><g id="Layer_1-2" data-name="Layer 1"><path class="cls-1" d="M49.37,43.5c2.27-2.54,5.2-5.21,9.74-5.21,7.61.14,8.27.8,17,.8,20.28,0,45-3.73,60.32-3.73,27.76,0,38.7,9.2,38.7,21.08,0,19.49-29,46.18-60.72,52.45-1.2.4-1.2,1.2-1.2,1.2,5.74,11.88,24.69,38.57,37.37,38.57,4.8,0,7.74-8,8.67-9.48a1.71,1.71,0,0,1,1.47-.93c1.07,0,2,1.07,2,2.67-2.8,14.41-33.5,52.58-48,52.58-24.69,0-25.36-47.91-29.76-62.19,0,0-1.47-8.81-1.87-9.21a2.56,2.56,0,0,0-1.6-.4c-.67,0-1.34.13-1.6.8-.67,1.47-16,31.1-16,31.1-4.67,8.27-9.47,12-15.61,12-5.07,0-38.17-2.67-38.17-14.28,0-3.47,2.54-6.41,10.94-13.75C35.36,125,75.53,90.47,86.6,79c0-.4-.4-.67-1.33-.67-3.47,0-35,2.93-44.31,2.93-5.6,0-10.68-1.86-10.68-5.47C30.28,70.19,46.43,48.17,49.37,43.5Zm44,46.84c0,1.87,9.34.27,14.54,11.08.4.8.81,1.2,1.47,1.2,5.21,0,14.28-11.21,14.28-19s-13.34-7.88-19.35-7.88c-7.74,0-5.34,7.08-10.54,13.61A1.78,1.78,0,0,0,93.41,90.34Z"/><path class="cls-1" d="M211.78,117.43a2.67,2.67,0,0,1,1.47-.53,2.13,2.13,0,0,1,1.87,2,1.85,1.85,0,0,1-.4,1.2c-9.48,11.88-31.9,30.56-51.65,30.56-16.41,0-23.62-8-23.62-18.55,0-20.82,27.63-51.78,65.53-51.78,9.61,0,13.88,3.74,13.88,8.94,0,10.54-17.22,27.23-44.71,35,1.6,3.73,5.6,6.14,13.34,6.14S204.31,125.7,211.78,117.43ZM192,88.47c-4.54,0-18.82,18.42-18.82,30.83v1.33c11.62-6.14,21.62-21.88,21.62-28.82C194.83,89.81,194,88.47,192,88.47Z"/><path class="cls-1" d="M280.51,116.9a2.13,2.13,0,0,1,1.87,2,1.85,1.85,0,0,1-.4,1.2,85.48,85.48,0,0,1-14,13.21c-8.41,6.54-31.76,17.62-48.05,17.62-9.74,0-16.94-4-16.94-15.22,0-19.35,27.62-51.11,53.64-51.11,0,0,5.61-2.94,11.08-2.94,10.41,0,10.94,15.49,16,15.49,1.86,0,3.33.93,3.33,2a1.86,1.86,0,0,1-.27.8c-1.06,1.33-16,13.21-23.48,13.21-11.35,0-7.74-16-12.41-16-3.61,0-7.08,8.4-7.08,16.81s3.34,16.42,13.08,16.42c12,0,22.15-12.95,22.15-12.95A2.67,2.67,0,0,1,280.51,116.9Z"/><path class="cls-1" d="M311.07,126c0,2.67,1.74,4.27,5.88,4.27,5.33,0,13.61-6.27,19.48-12.81a2.67,2.67,0,0,1,1.47-.53,2.13,2.13,0,0,1,1.87,2,1.91,1.91,0,0,1-.4,1.2c-9.48,11.88-35,30.56-54.72,30.56-11.88,0-16.15-4.27-16.15-10.68,0-16.28,28.16-45.77,33.77-51a11.59,11.59,0,0,1,7.87-3.6c6.27.67,15.21,1.6,21.35,4a2.83,2.83,0,0,1,2,2.54,2.6,2.6,0,0,1-.8,1.87C326.82,100.21,311.07,117.83,311.07,126ZM355.25,24.68c12.81,0,20.82,8.14,20.82,19.62,0,20.55-22.69,38.83-41.37,38.83-12.68,0-20.69-8-20.69-19.35C314,43.23,336.3,24.68,355.25,24.68Z"/><path class="cls-1" d="M377.8,99c.54,0,1.34-.8,1.74-1.06C389.15,90.07,401,85.4,410,85.4c7.61,0,13,3.34,13,10.94,0,17.22-36.57,49-65.66,49a29.83,29.83,0,0,1-7.74-.93c-7.87,13.08-23.62,39.77-25.36,41.24-2.27,1.86-6,4.13-13.88,4.13-8.4,0-28.29-2.53-28.29-10.54,0-2.54,8.41-9.34,20.42-20.82,4-3.87,46.84-55.92,46.84-64.59,0-.8-.26-1.2-1.07-1.2,0,0-6.53.4-8.27.4-2.4,0-3.74-.54-3.74-1.2.14-1.07,2.27-2.94,4-3.21,4.27,0,10.81-.26,35.5-12.67,0,0,4.67-2.14,7.87-2.14,2.94,0,5.74,3.07,5.74,5.87-3.47,4.94-6.54,9.48-11.75,18a2.41,2.41,0,0,0-.13.8C377.4,98.88,377.53,99,377.8,99Zm-2.93,8.81c-1.07,0-3.87,2.67-7.21,6.27l-14.81,25.09c11.74-1.06,26.69-19,26.69-27.22C379.54,109.42,378.2,107.82,374.87,107.82Z"/><path class="cls-1" d="M485.63,117.43a2.67,2.67,0,0,1,1.47-.53,2.13,2.13,0,0,1,1.87,2,1.91,1.91,0,0,1-.4,1.2c-9.48,11.88-31.9,30.56-51.65,30.56-16.41,0-23.62-8-23.62-18.55,0-20.82,27.62-51.78,65.53-51.78,9.6,0,13.87,3.74,13.87,8.94,0,10.54-17.21,27.23-44.7,35,1.6,3.73,5.6,6.14,13.34,6.14S478.16,125.7,485.63,117.43Zm-19.75-29c-4.54,0-18.82,18.42-18.82,30.83v1.33c11.61-6.14,21.62-21.88,21.62-28.82C468.68,89.81,467.88,88.47,465.88,88.47Z"/><path class="cls-1" d="M539.41,43.5c2.27-2.54,5.21-5.21,9.75-5.21,7.6.14,8.27.8,16.94.8,20.29,0,45-3.73,60.33-3.73,27.75,0,38.7,9.2,38.7,21.08,0,19.49-29,46.18-60.72,52.45-1.21.4-1.21,1.2-1.21,1.2,5.74,11.88,24.69,38.57,37.37,38.57,4.81,0,7.74-8,8.68-9.48a1.7,1.7,0,0,1,1.46-.93c1.07,0,2,1.07,2,2.67-2.81,14.41-33.5,52.58-48.05,52.58-24.69,0-25.35-47.91-29.76-62.19,0,0-1.47-8.81-1.87-9.21a2.52,2.52,0,0,0-1.6-.4c-.66,0-1.33.13-1.6.8-.67,1.47-16,31.1-16,31.1-4.67,8.27-9.48,12-15.62,12-5.07,0-38.17-2.67-38.17-14.28,0-3.47,2.54-6.41,10.95-13.75C525.4,125,565.57,90.47,576.65,79c0-.4-.4-.67-1.34-.67-3.47,0-35,2.93-44.3,2.93-5.61,0-10.68-1.86-10.68-5.47C520.33,70.19,536.48,48.17,539.41,43.5Zm44,46.84c0,1.87,9.34.27,14.55,11.08.4.8.8,1.2,1.47,1.2,5.2,0,14.28-11.21,14.28-19s-13.35-7.88-19.35-7.88c-7.74,0-5.34,7.08-10.55,13.61A1.87,1.87,0,0,0,583.45,90.34Z"/><path class="cls-1" d="M701.83,117.43a2.67,2.67,0,0,1,1.47-.53,2.13,2.13,0,0,1,1.86,2,1.85,1.85,0,0,1-.4,1.2c-9.47,11.88-31.89,30.56-51.64,30.56-16.42,0-23.62-8-23.62-18.55,0-20.82,27.62-51.78,65.52-51.78,9.61,0,13.88,3.74,13.88,8.94,0,10.54-17.21,27.23-44.71,35,1.61,3.73,5.61,6.14,13.35,6.14S694.35,125.7,701.83,117.43Zm-19.75-29c-4.54,0-18.82,18.42-18.82,30.83v1.33c11.61-6.14,21.62-21.88,21.62-28.82C684.88,89.81,684.08,88.47,682.08,88.47Z"/><path class="cls-1" d="M742.67,81.4c11.74,0,15.34,4.27,15.34,9.47,0,8-8.14,18.42-8.14,20.82a.35.35,0,0,0,.4.4c.94,0,3.34-1.47,4.54-2.4,9.48-8.14,35.36-25.62,47.64-25.62,3.87,0,6.28,1.87,6.28,6.8,0,7.34-5.21,13.35-11.35,22.16a.78.78,0,0,0,.8.8c6.41-6,27.23-16.82,37.5-16.82,3.47,0,5.74,1.2,5.74,4.41,0,15.08-17.61,41.1-17.61,51.51,0,2.8,1.2,4.54,4.53,4.54,2.67,0,6.14-2.27,9.48-7.08a3.64,3.64,0,0,1,2.67-1.46c.66,0,1.2.26,1.2,1.06s-.8,2-1.87,3.74c-8.41,12.81-36.83,31.9-53,31.9-6.81,0-11.34-3.34-11.34-12,0-9.6,22.68-40.7,22.68-48.31,0-1.73-.66-2.4-1.6-2.4a5.69,5.69,0,0,0-3.74,2.27c-.8.8-16.41,21-22.68,23.89a16.43,16.43,0,0,1-8.68,2.4c-9.87,0-26.42-5.6-26.42-9.74a4.09,4.09,0,0,1,1.6-3.07c3.2-3.07,15.61-14,15.61-17.88a1,1,0,0,0-1.06-1.07c-2.67,0-18.15,16.68-28.56,25.09-3.07,2.4-8.28,4-13.48,4-8.94,0-24.16-9.87-24.16-16.55a5.17,5.17,0,0,1,2.54-4.4c5.07-4.14,34.16-21.89,34.16-32.56,0-3.74-8.4-3.74-8.4-3.74-2.81,0-4.14-1.47-4.14-2.8,0-1.07.8-2,2.4-2C714.91,86.74,734.79,81.4,742.67,81.4Z"/><path class="cls-1" d="M879.19,126c0,2.67,1.74,4.27,5.87,4.27,5.34,0,13.61-6.27,19.49-12.81a2.62,2.62,0,0,1,1.46-.53,2.13,2.13,0,0,1,1.87,2,1.85,1.85,0,0,1-.4,1.2c-9.47,11.88-35,30.56-54.71,30.56-11.88,0-16.15-4.27-16.15-10.68,0-16.28,28.16-45.77,33.76-51a11.62,11.62,0,0,1,7.88-3.6c6.27.67,15.21,1.6,21.35,4a2.83,2.83,0,0,1,2,2.54,2.64,2.64,0,0,1-.8,1.87C894.94,100.21,879.19,117.83,879.19,126ZM923.36,24.68c12.82,0,20.82,8.14,20.82,19.62,0,20.55-22.69,38.83-41.37,38.83-12.68,0-20.68-8-20.68-19.35C882.13,43.23,904.41,24.68,923.36,24.68Z"/><path class="cls-1" d="M914.29,136a237.91,237.91,0,0,0-27.36,27c-1.6,1.73-2.13,2.4-5.2,2.4-3.87,0-12-.8-15.48-2.14-1.21-.4-1.61-.8-1.61-1.2s.8-1.06,1.47-1.73c12.81-11.88,30.3-24.42,47.91-36,.67-11.48,3.6-24,3.6-31.63,0-4.41-.93-7.08-3.73-7.08-5.87,0-8.14,2.41-9.21,2.41-.27,0-.53-.14-.53-.4.13-1.47.53-3.07,1.33-3.74,1.6-1.6,16.68-6.81,28.29-6.81,18,0,21.76,10,21.89,21.36,14.41-8.41,24.69-14,25.49-14.42a5.89,5.89,0,0,1,2.93-.93c2.41,0,5.88,1.47,5.88,2.27,0,.26-.27.53-.8.8a365.3,365.3,0,0,0-33.77,19.48c-.4,4.81-.93,9.61-.93,13.62,0,6.4,1.47,10.94,7.87,11.07,5.34,0,13.61-6.27,19.49-12.81a2.62,2.62,0,0,1,1.46-.53,2.13,2.13,0,0,1,1.87,2,1.85,1.85,0,0,1-.4,1.2c-9.47,11.88-35,30.56-54.71,30.56C919.76,150.66,915.62,144.52,914.29,136Z"/><path class="cls-1" d="M1004.5,108.49c9,0,14.55,5.6,14.55,13.74,0,14.28-15.88,27.1-29,27.1-8.81,0-14.41-5.61-14.41-13.48C975.68,121.43,991.29,108.49,1004.5,108.49Zm17-38.7c6-10,26.56-44,36.3-44,3.47,0,30.3,3.2,30.3,12.94,0,1.74-.67,2.94-3.21,4.94-12.67,9.34-62.32,58.05-65,60.72a3.1,3.1,0,0,1-2.27.8c-3.47,0-8.4-3.87-8.4-6.67C1009.18,93,1019.58,73,1021.45,69.79Z"/><path class="cls-2" d="M61.38,28.82c2.27-2.54,5.2-5.21,9.74-5.21,7.61.14,8.28.8,16.95.8,20.28,0,45-3.73,60.32-3.73,27.76,0,38.7,9.2,38.7,21.08,0,19.49-29,46.18-60.72,52.45-1.2.4-1.2,1.2-1.2,1.2,5.74,11.88,24.69,38.57,37.37,38.57,4.8,0,7.74-8,8.67-9.48a1.71,1.71,0,0,1,1.47-.93c1.07,0,2,1.07,2,2.67-2.8,14.41-33.5,52.58-48,52.58-24.69,0-25.36-47.91-29.76-62.19,0,0-1.47-8.81-1.87-9.21a2.54,2.54,0,0,0-1.6-.4c-.67,0-1.34.13-1.6.8-.67,1.47-16,31.1-16,31.1-4.67,8.27-9.47,12-15.61,12-5.07,0-38.17-2.67-38.17-14.28,0-3.47,2.54-6.41,10.94-13.75,14.42-12.54,54.59-47.11,65.66-58.58,0-.4-.4-.67-1.33-.67-3.47,0-35,2.93-44.31,2.93-5.6,0-10.67-1.86-10.67-5.47C42.3,55.51,58.44,33.49,61.38,28.82Zm44,46.84c0,1.87,9.34.27,14.55,11.08.4.8.8,1.2,1.46,1.2,5.21,0,14.28-11.21,14.28-19s-13.34-7.88-19.35-7.88c-7.74,0-5.34,7.08-10.54,13.62A1.73,1.73,0,0,0,105.42,75.66Z"/><path class="cls-2" d="M223.79,102.75a2.67,2.67,0,0,1,1.47-.53,2.13,2.13,0,0,1,1.87,2,1.85,1.85,0,0,1-.4,1.2C217.25,117.3,194.83,136,175.08,136c-16.41,0-23.62-8-23.62-18.55,0-20.82,27.63-51.78,65.53-51.78,9.61,0,13.88,3.74,13.88,8.94,0,10.54-17.22,27.23-44.71,35,1.6,3.73,5.61,6.13,13.35,6.13S216.32,111,223.79,102.75ZM204,73.79c-4.53,0-18.81,18.42-18.81,30.83V106c11.61-6.14,21.62-21.88,21.62-28.82C206.85,75.13,206,73.79,204,73.79Z"/><path class="cls-2" d="M292.52,102.22a2.13,2.13,0,0,1,1.87,2,1.85,1.85,0,0,1-.4,1.2,85.48,85.48,0,0,1-14,13.21c-8.41,6.54-31.76,17.62-48,17.62-9.75,0-16.95-4-16.95-15.22,0-19.35,27.62-51.11,53.65-51.11,0,0,5.6-2.94,11.07-2.94,10.41,0,10.94,15.49,16,15.49,1.86,0,3.33.93,3.33,2a2,2,0,0,1-.26.8c-1.07,1.33-16,13.21-23.49,13.21-11.35,0-7.74-16-12.41-16-3.61,0-7.08,8.4-7.08,16.81s3.34,16.41,13.08,16.41c12,0,22.16-12.94,22.16-12.94A2.62,2.62,0,0,1,292.52,102.22Z"/><path class="cls-2" d="M323.09,111.29c0,2.67,1.73,4.27,5.87,4.27,5.34,0,13.61-6.27,19.48-12.81a2.67,2.67,0,0,1,1.47-.53,2.13,2.13,0,0,1,1.87,2,1.91,1.91,0,0,1-.4,1.2c-9.48,11.88-35,30.56-54.72,30.56-11.88,0-16.15-4.27-16.15-10.68,0-16.28,28.16-45.77,33.77-51a11.59,11.59,0,0,1,7.87-3.6c6.27.67,15.21,1.6,21.35,4a2.81,2.81,0,0,1,2,2.53,2.61,2.61,0,0,1-.81,1.87C338.83,85.53,323.09,103.15,323.09,111.29ZM367.26,10c12.81,0,20.82,8.14,20.82,19.62,0,20.55-22.69,38.83-41.37,38.83C334,68.45,326,60.45,326,49.1,326,28.55,348.31,10,367.26,10Z"/><path class="cls-2" d="M389.81,84.33c.54,0,1.34-.8,1.74-1.06C401.16,75.39,413,70.72,422,70.72c7.61,0,12.95,3.34,12.95,10.94,0,17.22-36.57,49-65.66,49a29.89,29.89,0,0,1-7.74-.93c-7.87,13.08-23.62,39.77-25.36,41.23-2.26,1.87-6,4.14-13.88,4.14-8.4,0-28.29-2.53-28.29-10.54,0-2.54,8.41-9.34,20.42-20.82,4-3.87,46.84-55.92,46.84-64.59,0-.8-.26-1.2-1.06-1.2,0,0-6.54.4-8.28.4-2.4,0-3.74-.54-3.74-1.2.14-1.07,2.27-2.94,4-3.21,4.27,0,10.81-.26,35.5-12.67,0,0,4.67-2.14,7.87-2.14,2.94,0,5.74,3.07,5.74,5.87-3.47,4.94-6.54,9.48-11.74,18a2.25,2.25,0,0,0-.14.8C389.41,84.2,389.55,84.33,389.81,84.33Zm-2.93,8.81c-1.07,0-3.87,2.67-7.21,6.27L364.86,124.5c11.74-1.06,26.69-19,26.69-27.22C391.55,94.74,390.21,93.14,386.88,93.14Z"/><path class="cls-2" d="M497.64,102.75a2.67,2.67,0,0,1,1.47-.53,2.13,2.13,0,0,1,1.87,2,1.85,1.85,0,0,1-.4,1.2C491.1,117.3,468.68,136,448.93,136c-16.41,0-23.62-8-23.62-18.55,0-20.82,27.63-51.78,65.53-51.78,9.6,0,13.88,3.74,13.88,8.94,0,10.54-17.22,27.23-44.71,35,1.6,3.73,5.6,6.13,13.34,6.13S490.17,111,497.64,102.75Zm-19.75-29c-4.54,0-18.82,18.42-18.82,30.83V106c11.61-6.14,21.62-21.88,21.62-28.82C480.69,75.13,479.89,73.79,477.89,73.79Z"/><path class="cls-2" d="M551.42,28.82c2.27-2.54,5.21-5.21,9.75-5.21,7.6.14,8.27.8,17,.8,20.28,0,45-3.73,60.32-3.73,27.75,0,38.7,9.2,38.7,21.08,0,19.49-29,46.18-60.72,52.45-1.2.4-1.2,1.2-1.2,1.2C621,107.29,639.9,134,652.58,134c4.81,0,7.74-8,8.68-9.48a1.7,1.7,0,0,1,1.46-.93c1.07,0,2,1.07,2,2.67-2.81,14.41-33.5,52.58-48.05,52.58-24.69,0-25.35-47.91-29.76-62.19,0,0-1.46-8.81-1.87-9.21a2.52,2.52,0,0,0-1.6-.4c-.66,0-1.33.13-1.6.8-.67,1.47-16,31.1-16,31.1-4.67,8.27-9.48,12-15.62,12-5.07,0-38.16-2.67-38.16-14.28,0-3.47,2.53-6.41,10.94-13.75,14.41-12.54,54.58-47.11,65.66-58.58,0-.4-.4-.67-1.34-.67-3.47,0-35,2.93-44.3,2.93-5.61,0-10.68-1.86-10.68-5.47C532.34,55.51,548.49,33.49,551.42,28.82Zm44,46.84c0,1.87,9.35.27,14.55,11.08.4.8.8,1.2,1.47,1.2,5.2,0,14.28-11.21,14.28-19s-13.35-7.88-19.35-7.88c-7.74,0-5.34,7.08-10.55,13.62A1.81,1.81,0,0,0,595.46,75.66Z"/><path class="cls-2" d="M713.84,102.75a2.67,2.67,0,0,1,1.47-.53,2.13,2.13,0,0,1,1.86,2,1.85,1.85,0,0,1-.4,1.2C707.3,117.3,684.88,136,665.13,136c-16.42,0-23.62-8-23.62-18.55,0-20.82,27.62-51.78,65.52-51.78,9.61,0,13.88,3.74,13.88,8.94,0,10.54-17.21,27.23-44.71,35,1.61,3.73,5.61,6.13,13.35,6.13S706.37,111,713.84,102.75Zm-19.75-29c-4.54,0-18.82,18.42-18.82,30.83V106c11.61-6.14,21.62-21.88,21.62-28.82C696.89,75.13,696.09,73.79,694.09,73.79Z"/><path class="cls-2" d="M754.68,66.72C766.42,66.72,770,71,770,76.19c0,8-8.14,18.42-8.14,20.82a.35.35,0,0,0,.4.4c.94,0,3.34-1.47,4.54-2.4,9.48-8.14,35.37-25.62,47.64-25.62,3.87,0,6.28,1.86,6.28,6.8,0,7.34-5.21,13.35-11.35,22.16a.78.78,0,0,0,.8.8c6.41-6,27.23-16.82,37.5-16.82,3.47,0,5.74,1.2,5.74,4.41,0,15.08-17.61,41.1-17.61,51.51,0,2.8,1.2,4.54,4.53,4.54,2.67,0,6.14-2.27,9.48-7.08a3.66,3.66,0,0,1,2.67-1.46c.67,0,1.2.26,1.2,1.06s-.8,2-1.87,3.74c-8.41,12.81-36.83,31.89-53,31.89-6.81,0-11.34-3.33-11.34-12,0-9.6,22.68-40.7,22.68-48.31,0-1.73-.66-2.4-1.6-2.4a5.69,5.69,0,0,0-3.74,2.27c-.8.8-16.41,21-22.68,23.89a16.43,16.43,0,0,1-8.68,2.4c-9.87,0-26.42-5.6-26.42-9.74a4.09,4.09,0,0,1,1.6-3.07c3.2-3.07,15.62-14,15.62-17.88a1,1,0,0,0-1.07-1.07c-2.67,0-18.15,16.68-28.56,25.09-3.07,2.4-8.28,4-13.48,4-8.94,0-24.16-9.87-24.16-16.55a5.17,5.17,0,0,1,2.54-4.4c5.07-4.14,34.16-21.89,34.16-32.56,0-3.74-8.4-3.74-8.4-3.74-2.81,0-4.14-1.47-4.14-2.8,0-1.07.8-2,2.4-2C726.92,72.06,746.8,66.72,754.68,66.72Z"/><path class="cls-2" d="M891.2,111.29c0,2.67,1.74,4.27,5.87,4.27,5.34,0,13.62-6.27,19.49-12.81a2.62,2.62,0,0,1,1.46-.53,2.13,2.13,0,0,1,1.87,2,1.85,1.85,0,0,1-.4,1.2C910,117.3,884.53,136,864.78,136c-11.88,0-16.15-4.27-16.15-10.68,0-16.28,28.16-45.77,33.76-51a11.62,11.62,0,0,1,7.88-3.6c6.27.67,15.21,1.6,21.35,4a2.8,2.8,0,0,1,2,2.53,2.64,2.64,0,0,1-.8,1.87C907,85.53,891.2,103.15,891.2,111.29ZM935.37,10c12.82,0,20.82,8.14,20.82,19.62,0,20.55-22.68,38.83-41.37,38.83-12.68,0-20.68-8-20.68-19.35C894.14,28.55,916.42,10,935.37,10Z"/><path class="cls-2" d="M926.3,121.3a237.91,237.91,0,0,0-27.36,27c-1.6,1.73-2.13,2.4-5.2,2.4-3.87,0-12-.8-15.48-2.14-1.2-.4-1.61-.8-1.61-1.2s.81-1.06,1.47-1.73c12.81-11.88,30.3-24.42,47.91-36,.67-11.48,3.61-24,3.61-31.63,0-4.41-.94-7.08-3.74-7.08-5.87,0-8.14,2.41-9.21,2.41-.27,0-.53-.14-.53-.4.13-1.47.53-3.07,1.33-3.74,1.6-1.6,16.68-6.81,28.29-6.81,18,0,21.76,10,21.89,21.36,14.41-8.41,24.69-14,25.49-14.42a5.89,5.89,0,0,1,2.94-.93c2.4,0,5.87,1.47,5.87,2.27,0,.26-.27.53-.8.8A365.3,365.3,0,0,0,967.4,90.87c-.4,4.81-.93,9.61-.93,13.61,0,6.41,1.47,11,7.87,11.08,5.34,0,13.61-6.27,19.49-12.81a2.62,2.62,0,0,1,1.46-.53,2.13,2.13,0,0,1,1.87,2,1.85,1.85,0,0,1-.4,1.2c-9.47,11.88-35,30.56-54.71,30.56C931.77,136,927.63,129.84,926.3,121.3Z"/><path class="cls-2" d="M1016.52,93.81c8.94,0,14.54,5.6,14.54,13.74,0,14.28-15.88,27.1-29,27.1-8.81,0-14.41-5.61-14.41-13.48C987.69,106.75,1003.3,93.81,1016.52,93.81Zm16.94-38.7c6-10,26.56-44,36.3-44,3.47,0,30.3,3.2,30.3,12.94,0,1.74-.67,2.94-3.21,4.94-12.67,9.34-62.32,58.05-65,60.72a3.1,3.1,0,0,1-2.27.8c-3.47,0-8.4-3.87-8.4-6.67C1021.19,78.33,1031.6,58.31,1033.46,55.11Z"/><path class="cls-3" d="M61.38,28.82c2.27-2.54,5.2-5.21,9.74-5.21,7.61.14,8.28.8,16.95.8,20.28,0,45-3.73,60.32-3.73,27.76,0,38.7,9.2,38.7,21.08,0,19.49-29,46.18-60.72,52.45-1.2.4-1.2,1.2-1.2,1.2,5.74,11.88,24.69,38.57,37.37,38.57,4.8,0,7.74-8,8.67-9.48a1.71,1.71,0,0,1,1.47-.93c1.07,0,2,1.07,2,2.67-2.8,14.41-33.5,52.58-48,52.58-24.69,0-25.36-47.91-29.76-62.19,0,0-1.47-8.81-1.87-9.21a2.54,2.54,0,0,0-1.6-.4c-.67,0-1.34.13-1.6.8-.67,1.47-16,31.1-16,31.1-4.67,8.27-9.47,12-15.61,12-5.07,0-38.17-2.67-38.17-14.28,0-3.47,2.54-6.41,10.94-13.75,14.42-12.54,54.59-47.11,65.66-58.58,0-.4-.4-.67-1.33-.67-3.47,0-35,2.93-44.31,2.93-5.6,0-10.67-1.86-10.67-5.47C42.3,55.51,58.44,33.49,61.38,28.82Zm44,46.84c0,1.87,9.34.27,14.55,11.08.4.8.8,1.2,1.46,1.2,5.21,0,14.28-11.21,14.28-19s-13.34-7.88-19.35-7.88c-7.74,0-5.34,7.08-10.54,13.62A1.73,1.73,0,0,0,105.42,75.66Z"/><path class="cls-3" d="M223.79,102.75a2.67,2.67,0,0,1,1.47-.53,2.13,2.13,0,0,1,1.87,2,1.85,1.85,0,0,1-.4,1.2C217.25,117.3,194.83,136,175.08,136c-16.41,0-23.62-8-23.62-18.55,0-20.82,27.63-51.78,65.53-51.78,9.61,0,13.88,3.74,13.88,8.94,0,10.54-17.22,27.23-44.71,35,1.6,3.73,5.61,6.13,13.35,6.13S216.32,111,223.79,102.75ZM204,73.79c-4.53,0-18.81,18.42-18.81,30.83V106c11.61-6.14,21.62-21.88,21.62-28.82C206.85,75.13,206,73.79,204,73.79Z"/><path class="cls-3" d="M292.52,102.22a2.13,2.13,0,0,1,1.87,2,1.85,1.85,0,0,1-.4,1.2,85.48,85.48,0,0,1-14,13.21c-8.41,6.54-31.76,17.62-48,17.62-9.75,0-16.95-4-16.95-15.22,0-19.35,27.62-51.11,53.65-51.11,0,0,5.6-2.94,11.07-2.94,10.41,0,10.94,15.49,16,15.49,1.86,0,3.33.93,3.33,2a2,2,0,0,1-.26.8c-1.07,1.33-16,13.21-23.49,13.21-11.35,0-7.74-16-12.41-16-3.61,0-7.08,8.4-7.08,16.81s3.34,16.41,13.08,16.41c12,0,22.16-12.94,22.16-12.94A2.62,2.62,0,0,1,292.52,102.22Z"/><path class="cls-3" d="M323.09,111.29c0,2.67,1.73,4.27,5.87,4.27,5.34,0,13.61-6.27,19.48-12.81a2.67,2.67,0,0,1,1.47-.53,2.13,2.13,0,0,1,1.87,2,1.91,1.91,0,0,1-.4,1.2c-9.48,11.88-35,30.56-54.72,30.56-11.88,0-16.15-4.27-16.15-10.68,0-16.28,28.16-45.77,33.77-51a11.59,11.59,0,0,1,7.87-3.6c6.27.67,15.21,1.6,21.35,4a2.81,2.81,0,0,1,2,2.53,2.61,2.61,0,0,1-.81,1.87C338.83,85.53,323.09,103.15,323.09,111.29ZM367.26,10c12.81,0,20.82,8.14,20.82,19.62,0,20.55-22.69,38.83-41.37,38.83C334,68.45,326,60.45,326,49.1,326,28.55,348.31,10,367.26,10Z"/><path class="cls-3" d="M389.81,84.33c.54,0,1.34-.8,1.74-1.06C401.16,75.39,413,70.72,422,70.72c7.61,0,12.95,3.34,12.95,10.94,0,17.22-36.57,49-65.66,49a29.89,29.89,0,0,1-7.74-.93c-7.87,13.08-23.62,39.77-25.36,41.23-2.26,1.87-6,4.14-13.88,4.14-8.4,0-28.29-2.53-28.29-10.54,0-2.54,8.41-9.34,20.42-20.82,4-3.87,46.84-55.92,46.84-64.59,0-.8-.26-1.2-1.06-1.2,0,0-6.54.4-8.28.4-2.4,0-3.74-.54-3.74-1.2.14-1.07,2.27-2.94,4-3.21,4.27,0,10.81-.26,35.5-12.67,0,0,4.67-2.14,7.87-2.14,2.94,0,5.74,3.07,5.74,5.87-3.47,4.94-6.54,9.48-11.74,18a2.25,2.25,0,0,0-.14.8C389.41,84.2,389.55,84.33,389.81,84.33Zm-2.93,8.81c-1.07,0-3.87,2.67-7.21,6.27L364.86,124.5c11.74-1.06,26.69-19,26.69-27.22C391.55,94.74,390.21,93.14,386.88,93.14Z"/><path class="cls-3" d="M497.64,102.75a2.67,2.67,0,0,1,1.47-.53,2.13,2.13,0,0,1,1.87,2,1.85,1.85,0,0,1-.4,1.2C491.1,117.3,468.68,136,448.93,136c-16.41,0-23.62-8-23.62-18.55,0-20.82,27.63-51.78,65.53-51.78,9.6,0,13.88,3.74,13.88,8.94,0,10.54-17.22,27.23-44.71,35,1.6,3.73,5.6,6.13,13.34,6.13S490.17,111,497.64,102.75Zm-19.75-29c-4.54,0-18.82,18.42-18.82,30.83V106c11.61-6.14,21.62-21.88,21.62-28.82C480.69,75.13,479.89,73.79,477.89,73.79Z"/><path class="cls-3" d="M551.42,28.82c2.27-2.54,5.21-5.21,9.75-5.21,7.6.14,8.27.8,17,.8,20.28,0,45-3.73,60.32-3.73,27.75,0,38.7,9.2,38.7,21.08,0,19.49-29,46.18-60.72,52.45-1.2.4-1.2,1.2-1.2,1.2C621,107.29,639.9,134,652.58,134c4.81,0,7.74-8,8.68-9.48a1.7,1.7,0,0,1,1.46-.93c1.07,0,2,1.07,2,2.67-2.81,14.41-33.5,52.58-48.05,52.58-24.69,0-25.35-47.91-29.76-62.19,0,0-1.46-8.81-1.87-9.21a2.52,2.52,0,0,0-1.6-.4c-.66,0-1.33.13-1.6.8-.67,1.47-16,31.1-16,31.1-4.67,8.27-9.48,12-15.62,12-5.07,0-38.16-2.67-38.16-14.28,0-3.47,2.53-6.41,10.94-13.75,14.41-12.54,54.58-47.11,65.66-58.58,0-.4-.4-.67-1.34-.67-3.47,0-35,2.93-44.3,2.93-5.61,0-10.68-1.86-10.68-5.47C532.34,55.51,548.49,33.49,551.42,28.82Zm44,46.84c0,1.87,9.35.27,14.55,11.08.4.8.8,1.2,1.47,1.2,5.2,0,14.28-11.21,14.28-19s-13.35-7.88-19.35-7.88c-7.74,0-5.34,7.08-10.55,13.62A1.81,1.81,0,0,0,595.46,75.66Z"/><path class="cls-3" d="M713.84,102.75a2.67,2.67,0,0,1,1.47-.53,2.13,2.13,0,0,1,1.86,2,1.85,1.85,0,0,1-.4,1.2C707.3,117.3,684.88,136,665.13,136c-16.42,0-23.62-8-23.62-18.55,0-20.82,27.62-51.78,65.52-51.78,9.61,0,13.88,3.74,13.88,8.94,0,10.54-17.21,27.23-44.71,35,1.61,3.73,5.61,6.13,13.35,6.13S706.37,111,713.84,102.75Zm-19.75-29c-4.54,0-18.82,18.42-18.82,30.83V106c11.61-6.14,21.62-21.88,21.62-28.82C696.89,75.13,696.09,73.79,694.09,73.79Z"/><path class="cls-3" d="M754.68,66.72C766.42,66.72,770,71,770,76.19c0,8-8.14,18.42-8.14,20.82a.35.35,0,0,0,.4.4c.94,0,3.34-1.47,4.54-2.4,9.48-8.14,35.37-25.62,47.64-25.62,3.87,0,6.28,1.86,6.28,6.8,0,7.34-5.21,13.35-11.35,22.16a.78.78,0,0,0,.8.8c6.41-6,27.23-16.82,37.5-16.82,3.47,0,5.74,1.2,5.74,4.41,0,15.08-17.61,41.1-17.61,51.51,0,2.8,1.2,4.54,4.53,4.54,2.67,0,6.14-2.27,9.48-7.08a3.66,3.66,0,0,1,2.67-1.46c.67,0,1.2.26,1.2,1.06s-.8,2-1.87,3.74c-8.41,12.81-36.83,31.89-53,31.89-6.81,0-11.34-3.33-11.34-12,0-9.6,22.68-40.7,22.68-48.31,0-1.73-.66-2.4-1.6-2.4a5.69,5.69,0,0,0-3.74,2.27c-.8.8-16.41,21-22.68,23.89a16.43,16.43,0,0,1-8.68,2.4c-9.87,0-26.42-5.6-26.42-9.74a4.09,4.09,0,0,1,1.6-3.07c3.2-3.07,15.62-14,15.62-17.88a1,1,0,0,0-1.07-1.07c-2.67,0-18.15,16.68-28.56,25.09-3.07,2.4-8.28,4-13.48,4-8.94,0-24.16-9.87-24.16-16.55a5.17,5.17,0,0,1,2.54-4.4c5.07-4.14,34.16-21.89,34.16-32.56,0-3.74-8.4-3.74-8.4-3.74-2.81,0-4.14-1.47-4.14-2.8,0-1.07.8-2,2.4-2C726.92,72.06,746.8,66.72,754.68,66.72Z"/><path class="cls-3" d="M891.2,111.29c0,2.67,1.74,4.27,5.87,4.27,5.34,0,13.62-6.27,19.49-12.81a2.62,2.62,0,0,1,1.46-.53,2.13,2.13,0,0,1,1.87,2,1.85,1.85,0,0,1-.4,1.2C910,117.3,884.53,136,864.78,136c-11.88,0-16.15-4.27-16.15-10.68,0-16.28,28.16-45.77,33.76-51a11.62,11.62,0,0,1,7.88-3.6c6.27.67,15.21,1.6,21.35,4a2.8,2.8,0,0,1,2,2.53,2.64,2.64,0,0,1-.8,1.87C907,85.53,891.2,103.15,891.2,111.29ZM935.37,10c12.82,0,20.82,8.14,20.82,19.62,0,20.55-22.68,38.83-41.37,38.83-12.68,0-20.68-8-20.68-19.35C894.14,28.55,916.42,10,935.37,10Z"/><path class="cls-3" d="M926.3,121.3a237.91,237.91,0,0,0-27.36,27c-1.6,1.73-2.13,2.4-5.2,2.4-3.87,0-12-.8-15.48-2.14-1.2-.4-1.61-.8-1.61-1.2s.81-1.06,1.47-1.73c12.81-11.88,30.3-24.42,47.91-36,.67-11.48,3.61-24,3.61-31.63,0-4.41-.94-7.08-3.74-7.08-5.87,0-8.14,2.41-9.21,2.41-.27,0-.53-.14-.53-.4.13-1.47.53-3.07,1.33-3.74,1.6-1.6,16.68-6.81,28.29-6.81,18,0,21.76,10,21.89,21.36,14.41-8.41,24.69-14,25.49-14.42a5.89,5.89,0,0,1,2.94-.93c2.4,0,5.87,1.47,5.87,2.27,0,.26-.27.53-.8.8A365.3,365.3,0,0,0,967.4,90.87c-.4,4.81-.93,9.61-.93,13.61,0,6.41,1.47,11,7.87,11.08,5.34,0,13.61-6.27,19.49-12.81a2.62,2.62,0,0,1,1.46-.53,2.13,2.13,0,0,1,1.87,2,1.85,1.85,0,0,1-.4,1.2c-9.47,11.88-35,30.56-54.71,30.56C931.77,136,927.63,129.84,926.3,121.3Z"/><path class="cls-3" d="M1016.52,93.81c8.94,0,14.54,5.6,14.54,13.74,0,14.28-15.88,27.1-29,27.1-8.81,0-14.41-5.61-14.41-13.48C987.69,106.75,1003.3,93.81,1016.52,93.81Zm16.94-38.7c6-10,26.56-44,36.3-44,3.47,0,30.3,3.2,30.3,12.94,0,1.74-.67,2.94-3.21,4.94-12.67,9.34-62.32,58.05-65,60.72a3.1,3.1,0,0,1-2.27.8c-3.47,0-8.4-3.87-8.4-6.67C1021.19,78.33,1031.6,58.31,1033.46,55.11Z"/><path class="cls-3" d="M61.38,28.82c2.27-2.54,5.2-5.21,9.74-5.21,7.61.14,8.28.8,16.95.8,20.28,0,45-3.73,60.32-3.73,27.76,0,38.7,9.2,38.7,21.08,0,19.49-29,46.18-60.72,52.45-1.2.4-1.2,1.2-1.2,1.2,5.74,11.88,24.69,38.57,37.37,38.57,4.8,0,7.74-8,8.67-9.48a1.71,1.71,0,0,1,1.47-.93c1.07,0,2,1.07,2,2.67-2.8,14.41-33.5,52.58-48,52.58-24.69,0-25.36-47.91-29.76-62.19,0,0-1.47-8.81-1.87-9.21a2.54,2.54,0,0,0-1.6-.4c-.67,0-1.34.13-1.6.8-.67,1.47-16,31.1-16,31.1-4.67,8.27-9.47,12-15.61,12-5.07,0-38.17-2.67-38.17-14.28,0-3.47,2.54-6.41,10.94-13.75,14.42-12.54,54.59-47.11,65.66-58.58,0-.4-.4-.67-1.33-.67-3.47,0-35,2.93-44.31,2.93-5.6,0-10.67-1.86-10.67-5.47C42.3,55.51,58.44,33.49,61.38,28.82Zm44,46.84c0,1.87,9.34.27,14.55,11.08.4.8.8,1.2,1.46,1.2,5.21,0,14.28-11.21,14.28-19s-13.34-7.88-19.35-7.88c-7.74,0-5.34,7.08-10.54,13.62A1.73,1.73,0,0,0,105.42,75.66Z"/><path class="cls-3" d="M223.79,102.75a2.67,2.67,0,0,1,1.47-.53,2.13,2.13,0,0,1,1.87,2,1.85,1.85,0,0,1-.4,1.2C217.25,117.3,194.83,136,175.08,136c-16.41,0-23.62-8-23.62-18.55,0-20.82,27.63-51.78,65.53-51.78,9.61,0,13.88,3.74,13.88,8.94,0,10.54-17.22,27.23-44.71,35,1.6,3.73,5.61,6.13,13.35,6.13S216.32,111,223.79,102.75ZM204,73.79c-4.53,0-18.81,18.42-18.81,30.83V106c11.61-6.14,21.62-21.88,21.62-28.82C206.85,75.13,206,73.79,204,73.79Z"/><path class="cls-3" d="M292.52,102.22a2.13,2.13,0,0,1,1.87,2,1.85,1.85,0,0,1-.4,1.2,85.48,85.48,0,0,1-14,13.21c-8.41,6.54-31.76,17.62-48,17.62-9.75,0-16.95-4-16.95-15.22,0-19.35,27.62-51.11,53.65-51.11,0,0,5.6-2.94,11.07-2.94,10.41,0,10.94,15.49,16,15.49,1.86,0,3.33.93,3.33,2a2,2,0,0,1-.26.8c-1.07,1.33-16,13.21-23.49,13.21-11.35,0-7.74-16-12.41-16-3.61,0-7.08,8.4-7.08,16.81s3.34,16.41,13.08,16.41c12,0,22.16-12.94,22.16-12.94A2.62,2.62,0,0,1,292.52,102.22Z"/><path class="cls-3" d="M323.09,111.29c0,2.67,1.73,4.27,5.87,4.27,5.34,0,13.61-6.27,19.48-12.81a2.67,2.67,0,0,1,1.47-.53,2.13,2.13,0,0,1,1.87,2,1.91,1.91,0,0,1-.4,1.2c-9.48,11.88-35,30.56-54.72,30.56-11.88,0-16.15-4.27-16.15-10.68,0-16.28,28.16-45.77,33.77-51a11.59,11.59,0,0,1,7.87-3.6c6.27.67,15.21,1.6,21.35,4a2.81,2.81,0,0,1,2,2.53,2.61,2.61,0,0,1-.81,1.87C338.83,85.53,323.09,103.15,323.09,111.29ZM367.26,10c12.81,0,20.82,8.14,20.82,19.62,0,20.55-22.69,38.83-41.37,38.83C334,68.45,326,60.45,326,49.1,326,28.55,348.31,10,367.26,10Z"/><path class="cls-3" d="M389.81,84.33c.54,0,1.34-.8,1.74-1.06C401.16,75.39,413,70.72,422,70.72c7.61,0,12.95,3.34,12.95,10.94,0,17.22-36.57,49-65.66,49a29.89,29.89,0,0,1-7.74-.93c-7.87,13.08-23.62,39.77-25.36,41.23-2.26,1.87-6,4.14-13.88,4.14-8.4,0-28.29-2.53-28.29-10.54,0-2.54,8.41-9.34,20.42-20.82,4-3.87,46.84-55.92,46.84-64.59,0-.8-.26-1.2-1.06-1.2,0,0-6.54.4-8.28.4-2.4,0-3.74-.54-3.74-1.2.14-1.07,2.27-2.94,4-3.21,4.27,0,10.81-.26,35.5-12.67,0,0,4.67-2.14,7.87-2.14,2.94,0,5.74,3.07,5.74,5.87-3.47,4.94-6.54,9.48-11.74,18a2.25,2.25,0,0,0-.14.8C389.41,84.2,389.55,84.33,389.81,84.33Zm-2.93,8.81c-1.07,0-3.87,2.67-7.21,6.27L364.86,124.5c11.74-1.06,26.69-19,26.69-27.22C391.55,94.74,390.21,93.14,386.88,93.14Z"/><path class="cls-3" d="M497.64,102.75a2.67,2.67,0,0,1,1.47-.53,2.13,2.13,0,0,1,1.87,2,1.85,1.85,0,0,1-.4,1.2C491.1,117.3,468.68,136,448.93,136c-16.41,0-23.62-8-23.62-18.55,0-20.82,27.63-51.78,65.53-51.78,9.6,0,13.88,3.74,13.88,8.94,0,10.54-17.22,27.23-44.71,35,1.6,3.73,5.6,6.13,13.34,6.13S490.17,111,497.64,102.75Zm-19.75-29c-4.54,0-18.82,18.42-18.82,30.83V106c11.61-6.14,21.62-21.88,21.62-28.82C480.69,75.13,479.89,73.79,477.89,73.79Z"/><path class="cls-3" d="M551.42,28.82c2.27-2.54,5.21-5.21,9.75-5.21,7.6.14,8.27.8,17,.8,20.28,0,45-3.73,60.32-3.73,27.75,0,38.7,9.2,38.7,21.08,0,19.49-29,46.18-60.72,52.45-1.2.4-1.2,1.2-1.2,1.2C621,107.29,639.9,134,652.58,134c4.81,0,7.74-8,8.68-9.48a1.7,1.7,0,0,1,1.46-.93c1.07,0,2,1.07,2,2.67-2.81,14.41-33.5,52.58-48.05,52.58-24.69,0-25.35-47.91-29.76-62.19,0,0-1.46-8.81-1.87-9.21a2.52,2.52,0,0,0-1.6-.4c-.66,0-1.33.13-1.6.8-.67,1.47-16,31.1-16,31.1-4.67,8.27-9.48,12-15.62,12-5.07,0-38.16-2.67-38.16-14.28,0-3.47,2.53-6.41,10.94-13.75,14.41-12.54,54.58-47.11,65.66-58.58,0-.4-.4-.67-1.34-.67-3.47,0-35,2.93-44.3,2.93-5.61,0-10.68-1.86-10.68-5.47C532.34,55.51,548.49,33.49,551.42,28.82Zm44,46.84c0,1.87,9.35.27,14.55,11.08.4.8.8,1.2,1.47,1.2,5.2,0,14.28-11.21,14.28-19s-13.35-7.88-19.35-7.88c-7.74,0-5.34,7.08-10.55,13.62A1.81,1.81,0,0,0,595.46,75.66Z"/><path class="cls-3" d="M713.84,102.75a2.67,2.67,0,0,1,1.47-.53,2.13,2.13,0,0,1,1.86,2,1.85,1.85,0,0,1-.4,1.2C707.3,117.3,684.88,136,665.13,136c-16.42,0-23.62-8-23.62-18.55,0-20.82,27.62-51.78,65.52-51.78,9.61,0,13.88,3.74,13.88,8.94,0,10.54-17.21,27.23-44.71,35,1.61,3.73,5.61,6.13,13.35,6.13S706.37,111,713.84,102.75Zm-19.75-29c-4.54,0-18.82,18.42-18.82,30.83V106c11.61-6.14,21.62-21.88,21.62-28.82C696.89,75.13,696.09,73.79,694.09,73.79Z"/><path class="cls-3" d="M754.68,66.72C766.42,66.72,770,71,770,76.19c0,8-8.14,18.42-8.14,20.82a.35.35,0,0,0,.4.4c.94,0,3.34-1.47,4.54-2.4,9.48-8.14,35.37-25.62,47.64-25.62,3.87,0,6.28,1.86,6.28,6.8,0,7.34-5.21,13.35-11.35,22.16a.78.78,0,0,0,.8.8c6.41-6,27.23-16.82,37.5-16.82,3.47,0,5.74,1.2,5.74,4.41,0,15.08-17.61,41.1-17.61,51.51,0,2.8,1.2,4.54,4.53,4.54,2.67,0,6.14-2.27,9.48-7.08a3.66,3.66,0,0,1,2.67-1.46c.67,0,1.2.26,1.2,1.06s-.8,2-1.87,3.74c-8.41,12.81-36.83,31.89-53,31.89-6.81,0-11.34-3.33-11.34-12,0-9.6,22.68-40.7,22.68-48.31,0-1.73-.66-2.4-1.6-2.4a5.69,5.69,0,0,0-3.74,2.27c-.8.8-16.41,21-22.68,23.89a16.43,16.43,0,0,1-8.68,2.4c-9.87,0-26.42-5.6-26.42-9.74a4.09,4.09,0,0,1,1.6-3.07c3.2-3.07,15.62-14,15.62-17.88a1,1,0,0,0-1.07-1.07c-2.67,0-18.15,16.68-28.56,25.09-3.07,2.4-8.28,4-13.48,4-8.94,0-24.16-9.87-24.16-16.55a5.17,5.17,0,0,1,2.54-4.4c5.07-4.14,34.16-21.89,34.16-32.56,0-3.74-8.4-3.74-8.4-3.74-2.81,0-4.14-1.47-4.14-2.8,0-1.07.8-2,2.4-2C726.92,72.06,746.8,66.72,754.68,66.72Z"/><path class="cls-3" d="M891.2,111.29c0,2.67,1.74,4.27,5.87,4.27,5.34,0,13.62-6.27,19.49-12.81a2.62,2.62,0,0,1,1.46-.53,2.13,2.13,0,0,1,1.87,2,1.85,1.85,0,0,1-.4,1.2C910,117.3,884.53,136,864.78,136c-11.88,0-16.15-4.27-16.15-10.68,0-16.28,28.16-45.77,33.76-51a11.62,11.62,0,0,1,7.88-3.6c6.27.67,15.21,1.6,21.35,4a2.8,2.8,0,0,1,2,2.53,2.64,2.64,0,0,1-.8,1.87C907,85.53,891.2,103.15,891.2,111.29ZM935.37,10c12.82,0,20.82,8.14,20.82,19.62,0,20.55-22.68,38.83-41.37,38.83-12.68,0-20.68-8-20.68-19.35C894.14,28.55,916.42,10,935.37,10Z"/><path class="cls-3" d="M926.3,121.3a237.91,237.91,0,0,0-27.36,27c-1.6,1.73-2.13,2.4-5.2,2.4-3.87,0-12-.8-15.48-2.14-1.2-.4-1.61-.8-1.61-1.2s.81-1.06,1.47-1.73c12.81-11.88,30.3-24.42,47.91-36,.67-11.48,3.61-24,3.61-31.63,0-4.41-.94-7.08-3.74-7.08-5.87,0-8.14,2.41-9.21,2.41-.27,0-.53-.14-.53-.4.13-1.47.53-3.07,1.33-3.74,1.6-1.6,16.68-6.81,28.29-6.81,18,0,21.76,10,21.89,21.36,14.41-8.41,24.69-14,25.49-14.42a5.89,5.89,0,0,1,2.94-.93c2.4,0,5.87,1.47,5.87,2.27,0,.26-.27.53-.8.8A365.3,365.3,0,0,0,967.4,90.87c-.4,4.81-.93,9.61-.93,13.61,0,6.41,1.47,11,7.87,11.08,5.34,0,13.61-6.27,19.49-12.81a2.62,2.62,0,0,1,1.46-.53,2.13,2.13,0,0,1,1.87,2,1.85,1.85,0,0,1-.4,1.2c-9.47,11.88-35,30.56-54.71,30.56C931.77,136,927.63,129.84,926.3,121.3Z"/><path class="cls-3" d="M1016.52,93.81c8.94,0,14.54,5.6,14.54,13.74,0,14.28-15.88,27.1-29,27.1-8.81,0-14.41-5.61-14.41-13.48C987.69,106.75,1003.3,93.81,1016.52,93.81Zm16.94-38.7c6-10,26.56-44,36.3-44,3.47,0,30.3,3.2,30.3,12.94,0,1.74-.67,2.94-3.21,4.94-12.67,9.34-62.32,58.05-65,60.72a3.1,3.1,0,0,1-2.27.8c-3.47,0-8.4-3.87-8.4-6.67C1021.19,78.33,1031.6,58.31,1033.46,55.11Z"/><path class="cls-4" d="M64.05,28.82c2.27-2.54,5.2-5.21,9.74-5.21,7.61.14,8.27.8,16.95.8,20.28,0,45-3.73,60.32-3.73,27.76,0,38.7,9.2,38.7,21.08,0,19.49-29,46.18-60.72,52.45-1.2.4-1.2,1.2-1.2,1.2,5.74,11.88,24.69,38.57,37.37,38.57,4.8,0,7.74-8,8.67-9.48a1.7,1.7,0,0,1,1.47-.93c1.07,0,2,1.07,2,2.67-2.8,14.41-33.5,52.58-48,52.58-24.69,0-25.36-47.91-29.76-62.19,0,0-1.47-8.81-1.87-9.21a2.56,2.56,0,0,0-1.6-.4c-.67,0-1.34.13-1.6.8-.67,1.47-16,31.1-16,31.1-4.67,8.27-9.47,12-15.61,12-5.07,0-38.17-2.67-38.17-14.28,0-3.47,2.54-6.41,10.94-13.75C50,110.36,90.21,75.79,101.28,64.32c0-.4-.4-.67-1.33-.67-3.47,0-35,2.93-44.31,2.93C50,66.58,45,64.72,45,61.11,45,55.51,61.11,33.49,64.05,28.82Zm44,46.84c0,1.87,9.34.27,14.54,11.08.4.8.81,1.2,1.47,1.2,5.21,0,14.28-11.21,14.28-19S125,61.11,119,61.11c-7.74,0-5.34,7.08-10.54,13.62A1.73,1.73,0,0,0,108.09,75.66Z"/><path class="cls-4" d="M226.46,102.75a2.67,2.67,0,0,1,1.47-.53,2.13,2.13,0,0,1,1.87,2,1.85,1.85,0,0,1-.4,1.2C219.92,117.3,197.5,136,177.75,136c-16.41,0-23.62-8-23.62-18.55,0-20.82,27.63-51.78,65.53-51.78,9.61,0,13.88,3.74,13.88,8.94,0,10.54-17.22,27.23-44.71,35,1.6,3.73,5.6,6.13,13.34,6.13S219,111,226.46,102.75Zm-19.75-29c-4.54,0-18.82,18.42-18.82,30.83V106c11.61-6.14,21.62-21.88,21.62-28.82C209.51,75.13,208.71,73.79,206.71,73.79Z"/><path class="cls-4" d="M295.19,102.22a2.13,2.13,0,0,1,1.87,2,1.85,1.85,0,0,1-.4,1.2,85.48,85.48,0,0,1-14,13.21c-8.41,6.54-31.76,17.62-48,17.62-9.74,0-16.94-4-16.94-15.22,0-19.35,27.62-51.11,53.64-51.11,0,0,5.61-2.94,11.08-2.94,10.41,0,10.94,15.49,16,15.49,1.86,0,3.33.93,3.33,2a1.86,1.86,0,0,1-.27.8c-1.06,1.33-16,13.21-23.48,13.21-11.35,0-7.74-16-12.41-16-3.61,0-7.08,8.4-7.08,16.81s3.34,16.41,13.08,16.41c12,0,22.15-12.94,22.15-12.94A2.67,2.67,0,0,1,295.19,102.22Z"/><path class="cls-4" d="M325.75,111.29c0,2.67,1.74,4.27,5.88,4.27,5.33,0,13.61-6.27,19.48-12.81a2.67,2.67,0,0,1,1.47-.53,2.13,2.13,0,0,1,1.87,2,1.91,1.91,0,0,1-.4,1.2c-9.48,11.88-35,30.56-54.72,30.56-11.88,0-16.15-4.27-16.15-10.68,0-16.28,28.16-45.77,33.77-51a11.59,11.59,0,0,1,7.87-3.6c6.27.67,15.21,1.6,21.35,4a2.8,2.8,0,0,1,2,2.53,2.6,2.6,0,0,1-.8,1.87C341.5,85.53,325.75,103.15,325.75,111.29ZM369.93,10c12.81,0,20.82,8.14,20.82,19.62,0,20.55-22.69,38.83-41.37,38.83-12.68,0-20.69-8-20.69-19.35C328.69,28.55,351,10,369.93,10Z"/><path class="cls-4" d="M392.48,84.33c.54,0,1.34-.8,1.74-1.06,9.6-7.88,21.48-12.55,30.42-12.55,7.61,0,12.95,3.34,12.95,10.94,0,17.22-36.57,49-65.66,49a29.83,29.83,0,0,1-7.74-.93c-7.87,13.08-23.62,39.77-25.36,41.23-2.27,1.87-6,4.14-13.88,4.14-8.4,0-28.29-2.53-28.29-10.54,0-2.54,8.41-9.34,20.42-20.82,4-3.87,46.84-55.92,46.84-64.59,0-.8-.26-1.2-1.07-1.2,0,0-6.53.4-8.27.4-2.4,0-3.74-.54-3.74-1.2.14-1.07,2.27-2.94,4-3.21,4.27,0,10.81-.26,35.5-12.67,0,0,4.67-2.14,7.87-2.14,2.94,0,5.74,3.07,5.74,5.87-3.47,4.94-6.54,9.48-11.75,18a2.41,2.41,0,0,0-.13.8C392.08,84.2,392.21,84.33,392.48,84.33Zm-2.93,8.81c-1.07,0-3.87,2.67-7.21,6.27L367.53,124.5c11.74-1.06,26.69-19,26.69-27.22C394.22,94.74,392.88,93.14,389.55,93.14Z"/><path class="cls-4" d="M500.31,102.75a2.67,2.67,0,0,1,1.47-.53,2.13,2.13,0,0,1,1.87,2,1.91,1.91,0,0,1-.4,1.2C493.77,117.3,471.35,136,451.6,136c-16.41,0-23.62-8-23.62-18.55,0-20.82,27.62-51.78,65.53-51.78,9.6,0,13.87,3.74,13.87,8.94,0,10.54-17.21,27.23-44.7,35,1.6,3.73,5.6,6.13,13.34,6.13S492.84,111,500.31,102.75Zm-19.75-29c-4.54,0-18.82,18.42-18.82,30.83V106c11.61-6.14,21.62-21.88,21.62-28.82C483.36,75.13,482.56,73.79,480.56,73.79Z"/><path class="cls-4" d="M554.09,28.82c2.27-2.54,5.21-5.21,9.75-5.21,7.6.14,8.27.8,16.94.8,20.29,0,45-3.73,60.32-3.73,27.76,0,38.71,9.2,38.71,21.08,0,19.49-29,46.18-60.73,52.45-1.2.4-1.2,1.2-1.2,1.2,5.74,11.88,24.69,38.57,37.37,38.57,4.81,0,7.74-8,8.68-9.48a1.7,1.7,0,0,1,1.46-.93c1.07,0,2,1.07,2,2.67-2.81,14.41-33.5,52.58-48,52.58-24.69,0-25.35-47.91-29.76-62.19,0,0-1.47-8.81-1.87-9.21a2.52,2.52,0,0,0-1.6-.4c-.66,0-1.33.13-1.6.8-.67,1.47-16,31.1-16,31.1-4.67,8.27-9.48,12-15.62,12-5.07,0-38.17-2.67-38.17-14.28,0-3.47,2.54-6.41,10.95-13.75,14.41-12.54,54.58-47.11,65.66-58.58,0-.4-.4-.67-1.34-.67-3.47,0-35,2.93-44.3,2.93-5.61,0-10.68-1.86-10.68-5.47C535,55.51,551.16,33.49,554.09,28.82Zm44,46.84c0,1.87,9.34.27,14.55,11.08.4.8.8,1.2,1.47,1.2,5.2,0,14.28-11.21,14.28-19s-13.35-7.88-19.35-7.88c-7.74,0-5.34,7.08-10.55,13.62A1.81,1.81,0,0,0,598.13,75.66Z"/><path class="cls-4" d="M716.51,102.75a2.63,2.63,0,0,1,1.47-.53,2.13,2.13,0,0,1,1.86,2,1.85,1.85,0,0,1-.4,1.2C710,117.3,687.55,136,667.8,136c-16.42,0-23.62-8-23.62-18.55,0-20.82,27.62-51.78,65.52-51.78,9.61,0,13.88,3.74,13.88,8.94,0,10.54-17.21,27.23-44.71,35,1.61,3.73,5.61,6.13,13.35,6.13S709,111,716.51,102.75Zm-19.75-29c-4.54,0-18.82,18.42-18.82,30.83V106c11.61-6.14,21.62-21.88,21.62-28.82C699.56,75.13,698.76,73.79,696.76,73.79Z"/><path class="cls-4" d="M757.35,66.72c11.74,0,15.34,4.27,15.34,9.47,0,8-8.14,18.42-8.14,20.82a.35.35,0,0,0,.4.4c.94,0,3.34-1.47,4.54-2.4,9.47-8.14,35.36-25.62,47.64-25.62,3.87,0,6.27,1.86,6.27,6.8,0,7.34-5.2,13.35-11.34,22.16a.78.78,0,0,0,.8.8c6.41-6,27.23-16.82,37.5-16.82,3.47,0,5.74,1.2,5.74,4.41,0,15.08-17.62,41.1-17.62,51.51,0,2.8,1.21,4.54,4.54,4.54,2.67,0,6.14-2.27,9.48-7.08a3.64,3.64,0,0,1,2.67-1.46c.66,0,1.2.26,1.2,1.06s-.8,2-1.87,3.74c-8.41,12.81-36.83,31.89-53,31.89-6.81,0-11.35-3.33-11.35-12,0-9.6,22.69-40.7,22.69-48.31,0-1.73-.67-2.4-1.6-2.4a5.69,5.69,0,0,0-3.74,2.27c-.8.8-16.41,21-22.68,23.89a16.43,16.43,0,0,1-8.68,2.4c-9.87,0-26.42-5.6-26.42-9.74a4.09,4.09,0,0,1,1.6-3.07c3.2-3.07,15.61-14,15.61-17.88a1,1,0,0,0-1.06-1.07c-2.67,0-18.15,16.68-28.56,25.09-3.07,2.4-8.28,4-13.48,4-8.94,0-24.16-9.87-24.16-16.55a5.17,5.17,0,0,1,2.54-4.4c5.07-4.14,34.16-21.89,34.16-32.56,0-3.74-8.4-3.74-8.4-3.74-2.81,0-4.14-1.47-4.14-2.8,0-1.07.8-2,2.4-2C729.59,72.06,749.47,66.72,757.35,66.72Z"/><path class="cls-4" d="M893.87,111.29c0,2.67,1.73,4.27,5.87,4.27,5.34,0,13.61-6.27,19.49-12.81a2.62,2.62,0,0,1,1.46-.53,2.13,2.13,0,0,1,1.87,2,1.85,1.85,0,0,1-.4,1.2c-9.47,11.88-35,30.56-54.71,30.56-11.88,0-16.15-4.27-16.15-10.68,0-16.28,28.16-45.77,33.76-51a11.62,11.62,0,0,1,7.88-3.6c6.27.67,15.21,1.6,21.35,4a2.8,2.8,0,0,1,2,2.53,2.64,2.64,0,0,1-.8,1.87C909.62,85.53,893.87,103.15,893.87,111.29ZM938,10c12.81,0,20.82,8.14,20.82,19.62,0,20.55-22.69,38.83-41.37,38.83-12.68,0-20.68-8-20.68-19.35C896.81,28.55,919.09,10,938,10Z"/><path class="cls-4" d="M929,121.3a237.91,237.91,0,0,0-27.36,27c-1.6,1.73-2.13,2.4-5.2,2.4-3.87,0-12-.8-15.49-2.14-1.2-.4-1.6-.8-1.6-1.2s.8-1.06,1.47-1.73c12.81-11.88,30.3-24.42,47.91-36,.67-11.48,3.6-24,3.6-31.63,0-4.41-.93-7.08-3.73-7.08-5.87,0-8.14,2.41-9.21,2.41-.27,0-.53-.14-.53-.4.13-1.47.53-3.07,1.33-3.74,1.6-1.6,16.68-6.81,28.29-6.81,18,0,21.76,10,21.89,21.36,14.41-8.41,24.69-14,25.49-14.42a5.89,5.89,0,0,1,2.93-.93c2.41,0,5.88,1.47,5.88,2.27,0,.26-.27.53-.8.8a365.3,365.3,0,0,0-33.77,19.48c-.4,4.81-.93,9.61-.93,13.61,0,6.41,1.47,11,7.87,11.08,5.34,0,13.61-6.27,19.49-12.81a2.62,2.62,0,0,1,1.46-.53,2.13,2.13,0,0,1,1.87,2,1.85,1.85,0,0,1-.4,1.2C990,117.3,964.47,136,944.72,136,934.44,136,930.3,129.84,929,121.3Z"/><path class="cls-4" d="M1019.18,93.81c9,0,14.55,5.6,14.55,13.74,0,14.28-15.88,27.1-29,27.1-8.81,0-14.41-5.61-14.41-13.48C990.36,106.75,1006,93.81,1019.18,93.81Zm17-38.7c6-10,26.56-44,36.3-44,3.47,0,30.3,3.2,30.3,12.94,0,1.74-.67,2.94-3.21,4.94-12.67,9.34-62.32,58.05-65,60.72a3.1,3.1,0,0,1-2.27.8c-3.47,0-8.41-3.87-8.41-6.67C1023.85,78.33,1034.26,58.31,1036.13,55.11Z"/></g></g></svg>