<svg xmlns="http://www.w3.org/2000/svg" xmlns:xlink="http://www.w3.org/1999/xlink" viewBox="0 0 1920.5 1080.5"><defs><style>.cls-1{isolation:isolate;}.cls-2{fill:#f4e07f;opacity:0.15;}.cls-3{fill:none;}.cls-4{fill:#ffe98d;opacity:0.5;}.cls-5{opacity:0.55;mix-blend-mode:multiply;fill:url(#linear-gradient);}</style><linearGradient id="linear-gradient" x1="130.04" y1="212.01" x2="1915.81" y2="917.3" gradientUnits="userSpaceOnUse"><stop offset="0" stop-color="#ffe98d"/><stop offset="1" stop-color="#ffb969"/></linearGradient></defs><g class="cls-1"><g id="Layer_2" data-name="Layer 2"><g id="Layer_2-2" data-name="Layer 2"><rect class="cls-2" x="0.5" y="0.5" width="1920" height="1080"/><path class="cls-3" d="M0,1080H1920V0H945.76"/><path class="cls-3" d="M110.5,936.2c458.6,0,831.7-373.1,831.7-831.7A843.56,843.56,0,0,0,935.84,1.23L941.72.5H685.25a589.89,589.89,0,0,1,9.25,104,580.26,580.26,0,0,1-45.9,227.32A581.9,581.9,0,0,1,523.45,517.45,581.9,581.9,0,0,1,337.82,642.6,580.26,580.26,0,0,1,110.5,688.5,589,589,0,0,1,.5,678.14v257l.8-6.1A843.51,843.51,0,0,0,110.5,936.2Z"/><path class="cls-3" d="M110.5,586.5c265.78,0,482-216.22,482-482A485.18,485.18,0,0,0,582,4.14L599.24.5H365.12a272.79,272.79,0,0,1,20.38,104A273.15,273.15,0,0,1,305,299,273.15,273.15,0,0,1,110.5,379.5,272.5,272.5,0,0,1,.5,356.59V592.06l3.88-17.28A485,485,0,0,0,110.5,586.5Z"/><path class="cls-3" d="M110.5,339.5c129.58,0,235-105.42,235-235A233.14,233.14,0,0,0,324.93,8.21L342.06.5H.5V333.34l8.18-17A232.83,232.83,0,0,0,110.5,339.5Z"/><path class="cls-3" d="M955.89.5a863.81,863.81,0,0,1,6.31,104A846.29,846.29,0,0,1,895.26,436,848.6,848.6,0,0,1,712.74,706.74,848.6,848.6,0,0,1,442,889.26,846.29,846.29,0,0,1,110.5,956.2a863.3,863.3,0,0,1-110-7.06V1079.5h1920V.5Z"/><path class="cls-3" d="M110.5,668.5c311,0,564-253,564-564A568.67,568.67,0,0,0,665.16,1.81L672.28.5H622.12a526.17,526.17,0,0,1,10.38,104,518.67,518.67,0,0,1-41,203.19A523.75,523.75,0,0,1,313.69,585.47a518.67,518.67,0,0,1-203.19,41A525,525,0,0,1,.5,614.86V665.3l1.41-7.25A569.06,569.06,0,0,0,110.5,668.5Z"/><path class="cls-4" d="M442,889.26A848.6,848.6,0,0,0,712.74,706.74,848.6,848.6,0,0,0,895.26,436,846.29,846.29,0,0,0,962.2,104.5,863.81,863.81,0,0,0,955.89.5H941.72l-5.88.73A843.56,843.56,0,0,1,942.2,104.5c0,458.6-373.1,831.7-831.7,831.7A843.51,843.51,0,0,1,1.3,929.08l-.8,6.1v14a863.3,863.3,0,0,0,110,7.06A846.29,846.29,0,0,0,442,889.26Z"/><path class="cls-4" d="M337.82,642.6A581.9,581.9,0,0,0,523.45,517.45,581.9,581.9,0,0,0,648.6,331.82,580.26,580.26,0,0,0,694.5,104.5,589.89,589.89,0,0,0,685.25.5h-13l-7.12,1.31A568.67,568.67,0,0,1,674.5,104.5c0,311-253,564-564,564A569.06,569.06,0,0,1,1.91,658.05L.5,665.3v12.84a589,589,0,0,0,110,10.36A580.26,580.26,0,0,0,337.82,642.6Z"/><path class="cls-4" d="M313.69,585.47A523.75,523.75,0,0,0,591.47,307.69a518.67,518.67,0,0,0,41-203.19A526.17,526.17,0,0,0,622.12.5H599.24L582,4.14A485.18,485.18,0,0,1,592.5,104.5c0,265.78-216.22,482-482,482A485,485,0,0,1,4.38,574.78L.5,592.06v22.8a525,525,0,0,0,110,11.64A518.67,518.67,0,0,0,313.69,585.47Z"/><path class="cls-4" d="M305,299A273.15,273.15,0,0,0,385.5,104.5,272.79,272.79,0,0,0,365.12.5H342.06L324.93,8.21A233.14,233.14,0,0,1,345.5,104.5c0,129.58-105.42,235-235,235A232.83,232.83,0,0,1,8.68,316.36l-8.18,17v23.25a272.5,272.5,0,0,0,110,22.91A273.15,273.15,0,0,0,305,299Z"/><path class="cls-4" d="M305,299A273.15,273.15,0,0,0,385.5,104.5,272.79,272.79,0,0,0,365.12.5H342.06L324.93,8.21A233.14,233.14,0,0,1,345.5,104.5c0,129.58-105.42,235-235,235A232.83,232.83,0,0,1,8.68,316.36l-8.18,17v23.25a272.5,272.5,0,0,0,110,22.91A273.15,273.15,0,0,0,305,299Z"/><rect class="cls-5" x="0.5" y="0.5" width="1920" height="1079"/></g></g></g></svg>